<svg xmlns="http://www.w3.org/2000/svg" width="124" height="24" viewBox="0 0 124 24" fill="none">
  <path d="M44.707 12.6942C44.707 16.7468 48.7596 18.8913 52.7126 18.8913C55.8976 18.8913 60.4878 17.4357 60.4878 12.933C60.4878 9.75529 58.3625 8.58643 55.3228 7.84719C52.6586 7.19916 49.4365 7.29996 49.4365 5.58508C49.4365 4.19541 50.9426 3.68658 52.4378 3.68658C54.1179 3.68658 55.8208 4.39822 55.8208 6.23311H60.0042C59.6418 2.0293 56.2372 0.428421 52.5146 0.428421C48.7921 0.428421 45.1763 2.0245 45.1763 6.27271C45.1763 9.28486 47.7792 10.5797 50.5057 11.0526C54.6111 11.7642 55.8844 11.9286 55.8844 13.4887C55.8844 15.1436 53.5431 15.5696 52.7462 15.5696C50.9006 15.5696 48.9769 14.7463 48.9445 12.6942H44.707Z" fill="white"/>
  <path fill-rule="evenodd" clip-rule="evenodd" d="M123.088 0.459623H118.57V2.34372C118.57 2.34372 117.447 0 113.218 0C108.658 0 105.779 4.007 105.779 8.40882C105.779 13.0735 108.266 16.766 113.367 16.766C117.2 16.766 118.405 14.7463 118.405 14.7463L118.445 16.5548C118.295 18.9621 117.036 20.2498 114.625 20.2498C112.845 20.2498 111.724 19.675 111.478 18.2781L106.496 18.5517C106.676 21.9743 110.583 24 114.135 24C122.139 24 123.088 19.7842 123.088 16.3568V0.459623ZM114.21 13.0495C111.781 13.0495 110.22 10.6949 110.356 8.34282C110.484 6.15271 111.644 3.87739 114.391 3.87739C117.138 3.87739 118.625 6.12271 118.445 8.73764C118.3 10.8545 117.09 13.0495 114.209 13.0495H114.21Z" fill="white"/>
  <path d="M61.2211 18.0333H65.9229V8.22521C65.9229 5.27546 67.963 4.59023 68.8631 4.59023C71.424 4.59023 71.6244 6.67113 71.6244 8.55643V18.0345H76.3263V8.23241C76.3263 5.27546 78.0219 4.53623 79.234 4.53623C81.9377 4.53623 82.0277 6.64473 82.0277 8.56123V18.0345H86.7296V6.70113C86.7296 2.26571 84.2011 0.577229 80.6693 0.577229C78.3568 0.577229 76.6239 1.9345 75.6602 3.42377C74.7614 1.37167 72.8989 0.577229 70.812 0.577229C68.7251 0.577229 66.9274 1.60328 65.7393 3.35777H65.6757V1.04165H61.2223V18.0333H61.2211Z" fill="white"/>
  <path fill-rule="evenodd" clip-rule="evenodd" d="M104.812 10.5713C105.169 5.47947 102.266 0.139206 96.0781 0.139206C90.6562 0.139206 87.44 4.53382 87.44 9.32566C87.44 14.1175 90.757 18.3741 96.2617 18.3741C100.212 18.3741 103.242 16.7684 104.593 12.7302L99.7467 12.5154C99.6231 13.1455 98.3498 14.6275 96.3517 14.6275C93.684 14.6275 92.2451 12.5706 92.2451 10.5713H104.812ZM92.3687 7.24476C92.3687 6.61473 93.1895 3.82219 96.1201 3.82219C99.0506 3.82219 99.8715 6.45032 99.8715 7.24476H92.3699H92.3687Z" fill="white"/>
  <path d="M21.8819 18.0381C21.8819 14.9515 24.3841 12.4482 27.4718 12.4482C30.5596 12.4482 33.0617 14.9515 33.0617 18.0381C33.0617 21.1247 30.5596 23.628 27.4718 23.628C24.3841 23.628 21.8819 21.1259 21.8819 18.0381Z" fill="white"/>
  <path d="M10.941 18.0381C10.941 14.9515 13.4431 12.4482 16.5309 12.4482C19.6186 12.4482 22.1208 14.9515 22.1208 18.0381C22.1208 21.1247 19.6174 23.628 16.5309 23.628C13.4443 23.628 10.941 21.1259 10.941 18.0381Z" fill="white"/>
  <path d="M7.62939e-06 18.0381C7.62939e-06 14.9515 2.50213 12.4482 5.58989 12.4482C8.67764 12.4482 11.1798 14.9515 11.1798 18.0381C11.1798 21.1247 8.67764 23.628 5.58989 23.628C2.50213 23.628 7.62939e-06 21.1259 7.62939e-06 18.0381Z" fill="white"/>
  <path d="M21.8819 7.09836C21.8819 4.0106 24.3841 1.50848 27.4718 1.50848C30.5596 1.50848 33.0617 4.0106 33.0617 7.09836C33.0617 10.1861 30.5584 12.6882 27.4718 12.6882C24.3853 12.6882 21.8819 10.1861 21.8819 7.09836Z" fill="white"/>
  <path d="M10.941 7.09836C10.941 4.0106 13.4431 1.50848 16.5309 1.50848C19.6186 1.50848 22.1208 4.0106 22.1208 7.09836C22.1208 10.1861 19.6174 12.6882 16.5309 12.6882C13.4443 12.6882 10.941 10.1861 10.941 7.09836Z" fill="white"/>
  <path d="M32.8085 7.09836C32.8085 4.0106 35.3106 1.50848 38.3984 1.50848C41.4861 1.50848 43.9882 4.0106 43.9882 7.09836C43.9882 10.1861 41.4861 12.6882 38.3984 12.6882C35.3106 12.6882 32.8085 10.1861 32.8085 7.09836Z" fill="white"/>
</svg>