<svg enable-background="new 0 0 1011 124" viewBox="0 0 1011 124" xmlns="http://www.w3.org/2000/svg"><path d="m103.4 0h57.5v124h-57.5zm422.6 46.3h-23.4v-46.3h-56.6v124h56.6v-48.9h23.4v48.9h56.6v-124h-56.6zm-123.4 15.6c12.3-2.5 22.4-12.7 22.4-28.5 0-16.2-9.3-26.8-25.1-30.7-6.9-1.8-18.2-2.7-28.4-2.7h-77.3v124h77.8c10.4 0 21.9-.9 29-2.6 16.2-3.9 25.7-14.5 25.7-30.7.1-16.6-10.9-27-24.1-28.8m-53.9-39.4h9.2c12.3 0 16.4 6.1 16.4 14.8s-4.1 14.8-16.4 14.8h-9.2zm10.1 79h-10.2v-30.5h10.2c13.2 0 17.4 6.1 17.4 15.3 0 9.1-4.1 15.2-17.4 15.2m-302.2-101.5h-56.6v124h83.6v-31.5h-27zm605.9 73.7h28.8v-24.3h-28.8v-22.4h31.5v-27h-87.2v124h88.1v-27h-32.3zm-422 0h28.8v-24.3h-28.8l-.1-22.4h31.5v-27h-87.2v124h88.1v-27h-32.3zm585.3-1.4c16-6.8 23.1-18.3 23.1-34.4 0-18.4-11-30.4-29.4-34.9-8.1-1.9-21.2-3-33-3h-70.1v124h53.9v-40.4h5.5l21.5 40.4h60.5zm-46.2-12.1h-9.3v-34.1h9.3c12.4 0 16.5 6.2 16.5 17.1s-4.1 17-16.5 17zm199.3 12.1c16-6.8 23.1-18.3 23.1-34.4 0-18.4-11-30.4-29.4-34.9-8.1-1.9-21.2-3-33-3h-70.3v124h54v-40h5.5l21.3 40h61zm-46.4-12.3h-9.3v-34h9.3c12.4 0 16.5 6.2 16.5 17s-4.1 17-16.5 17z" fill="#fff"/></svg>