<svg xmlns="http://www.w3.org/2000/svg" width="44" height="24" viewBox="0 0 44 24" fill="none">
  <g clip-path="url(#clip0_173_1409)">
    <path d="M0.399414 0.491699H10.9244V23.4315H0.399414V0.491699Z" fill="white"/>
    <path d="M32.2194 0.491699L42.8212 11.9539L32.2194 23.4315H9.81738V0.491699H32.2194Z" fill="#289548"/>
    <mask id="mask0_173_1409" style="mask-type:luminance" maskUnits="userSpaceOnUse" x="-1" y="0" width="45" height="24">
      <path d="M-0.000976562 0.0307617H43.5586V23.9847H-0.000976562V0.0307617Z" fill="white"/>
    </mask>
    <g mask="url(#mask0_173_1409)">
      <path d="M32.4805 23.9847H-0.000976562V0.0307617H32.4805L43.5586 12.0154L32.4805 24V23.9847ZM0.967013 23.0167H32.0656L42.2525 12L32.0502 0.983387H0.967013V23.0167Z" fill="#222221"/>
      <path d="M24.2751 13.2753H21.1561L22.7079 8.58897L24.2598 13.2753H24.2751ZM24.3673 6.91419C24.3366 6.80664 24.2905 6.71445 24.2444 6.65299C24.1983 6.59153 24.1215 6.54544 23.9986 6.51471C23.891 6.48398 23.7374 6.46861 23.5376 6.45325H22.0319C21.8629 6.45325 21.7246 6.48398 21.617 6.51471C21.5248 6.54544 21.448 6.59153 21.4019 6.65299C21.3558 6.71445 21.3251 6.79128 21.279 6.88346L17.8833 16.6556C17.8219 16.8553 17.7758 17.0089 17.7604 17.1319C17.7451 17.2548 17.7604 17.347 17.8219 17.4084C17.8833 17.4699 17.9755 17.516 18.1292 17.5314C18.2828 17.5467 18.4826 17.5621 18.7438 17.5621C19.005 17.5621 19.1894 17.5621 19.343 17.5467C19.4967 17.5467 19.6042 17.516 19.6964 17.4853C19.7732 17.4545 19.8347 17.4084 19.8808 17.3623C19.9269 17.3162 19.9422 17.2394 19.973 17.1626L20.6644 15.0115H24.7976L25.5351 17.2241C25.5658 17.3009 25.5812 17.3623 25.6119 17.4084C25.6426 17.4545 25.7041 17.4853 25.7963 17.516C25.8885 17.5467 26.0114 17.5621 26.165 17.5621H26.8411C27.133 17.5621 27.3328 17.5621 27.5018 17.5467C27.6554 17.5467 27.7783 17.5006 27.8398 17.4392C27.9013 17.3777 27.932 17.2855 27.9166 17.1626C27.9013 17.0397 27.8552 16.886 27.7937 16.6709L24.3827 6.91419H24.3673Z" fill="white"/>
      <path d="M26.8414 17.7927H26.15C25.981 17.7927 25.8273 17.7619 25.7198 17.7312C25.5968 17.6851 25.4893 17.6236 25.4125 17.5468C25.351 17.47 25.3203 17.3778 25.2895 17.2856L24.5981 15.2421H20.803L20.1577 17.2241C20.1269 17.3163 20.0808 17.4085 20.0347 17.4854C19.9733 17.5775 19.8657 17.6544 19.7428 17.7005C19.6353 17.7466 19.497 17.7619 19.328 17.7773C19.0053 17.7927 18.3753 17.808 18.0834 17.7773C17.8683 17.7466 17.7146 17.6851 17.6224 17.5622C17.5456 17.4854 17.4688 17.3317 17.5149 17.1012C17.5303 16.9629 17.5764 16.7939 17.6532 16.5788L21.0488 6.80674C21.0949 6.68382 21.141 6.59163 21.2025 6.49944C21.2793 6.39188 21.3869 6.31506 21.5405 6.26896C21.6634 6.22287 21.8324 6.2075 22.0168 6.19214H23.5379C23.753 6.19214 23.9221 6.22287 24.0603 6.2536C24.2294 6.29969 24.3523 6.37652 24.4291 6.48407C24.4906 6.57626 24.552 6.68382 24.5828 6.80674L27.9784 16.5635C28.0552 16.7786 28.1013 16.9629 28.1167 17.0859C28.1474 17.3471 28.0552 17.4854 27.963 17.5622C27.8708 17.6544 27.7172 17.7158 27.4867 17.7312C27.3177 17.7466 27.0872 17.7619 26.8107 17.7619L26.8414 17.7927ZM25.8119 17.2395C25.8119 17.2395 25.8273 17.2395 25.858 17.2549C25.9041 17.2702 26.0117 17.2856 26.1807 17.301H26.8414C27.118 17.301 27.3177 17.301 27.4714 17.2856C27.625 17.2702 27.6557 17.2395 27.6557 17.2395V17.1781C27.6404 17.0705 27.5943 16.9169 27.5328 16.7325L24.1218 6.96038C24.0911 6.88356 24.0603 6.8221 24.045 6.77601C24.045 6.77601 24.0143 6.74528 23.9374 6.71455C23.876 6.69918 23.7377 6.66845 23.5226 6.66845H22.0475C21.8632 6.66845 21.7556 6.69918 21.6941 6.71455C21.6327 6.72991 21.602 6.76064 21.602 6.77601C21.5866 6.80674 21.5559 6.85283 21.5251 6.94502L18.1295 16.7171C18.068 16.9015 18.0219 17.0398 18.0066 17.1473V17.2241C18.0066 17.2241 18.0373 17.2549 18.1602 17.2702C18.4368 17.301 19.0207 17.301 19.3126 17.2702C19.4509 17.2702 19.5431 17.2395 19.5892 17.2241C19.6199 17.2241 19.6506 17.1934 19.6506 17.1934C19.6813 17.1627 19.6967 17.1166 19.7121 17.0551L20.465 14.7197H24.9515L25.7505 17.1012C25.7659 17.1627 25.7966 17.1934 25.7966 17.2088L25.8119 17.2395ZM24.5981 13.5212H20.803L22.5239 8.35859H22.8772L22.9387 8.52761L24.5981 13.5212ZM21.479 13.0449H23.9374L22.7082 9.35731L21.479 13.0449Z" fill="#222221"/>
    </g>
    <path d="M5.9767 5.51597H4.45557L5.20845 3.24196L5.96133 5.51597H5.9767ZM6.02279 2.42762C6.00743 2.38152 5.99206 2.33543 5.96133 2.3047C5.9306 2.27397 5.89987 2.24324 5.83841 2.22787C5.77695 2.21251 5.71549 2.19714 5.60794 2.19714H4.88579C4.7936 2.19714 4.73214 2.19714 4.68604 2.22787C4.63995 2.2586 4.60922 2.2586 4.57849 2.28933C4.56312 2.32006 4.53239 2.35079 4.51703 2.41225L2.87298 7.14465C2.84225 7.23684 2.81152 7.31366 2.81152 7.37512C2.81152 7.43658 2.81152 7.48268 2.84225 7.5134C2.87298 7.54414 2.91908 7.5595 2.9959 7.57486H3.57977C3.65659 7.57486 3.71805 7.57486 3.74878 7.54413C3.79488 7.54413 3.82561 7.5134 3.84097 7.48268L3.88707 7.39049L4.2251 6.34567H6.2379L6.59129 7.42122C6.59129 7.45194 6.62202 7.48268 6.63739 7.5134C6.63739 7.52877 6.68348 7.5595 6.72958 7.5595C6.77567 7.5595 6.83713 7.57486 6.91396 7.59023H7.55928C7.63611 7.59023 7.69757 7.5595 7.71293 7.52877C7.74366 7.49804 7.75903 7.45195 7.74366 7.40585C7.74366 7.34439 7.71293 7.26757 7.6822 7.17538L6.03816 2.44298L6.02279 2.42762ZM7.43636 16.8399C7.421 16.7631 7.39027 16.717 7.35954 16.6709C7.32881 16.6248 7.25198 16.5941 7.1598 16.5326C7.06761 16.4712 6.94469 16.4251 6.8064 16.379C6.66812 16.3329 6.4991 16.3021 6.31472 16.256C6.13035 16.2253 5.91524 16.2099 5.68476 16.2099C5.26991 16.2099 4.88579 16.2714 4.53239 16.4097C4.19437 16.5326 3.90243 16.7324 3.65659 16.9628C3.41076 17.2087 3.22638 17.5006 3.08809 17.854C2.94981 18.2074 2.88835 18.5915 2.88835 19.0371C2.88835 19.4827 2.94981 19.8361 3.07273 20.1741C3.19565 20.5121 3.38003 20.7887 3.6105 21.0192C3.84097 21.2496 4.13291 21.434 4.47093 21.5569C4.80896 21.6799 5.19309 21.7413 5.6233 21.7413C6.26863 21.7413 5.91524 21.7413 6.05352 21.726C6.20717 21.726 6.34545 21.6952 6.48374 21.6645C6.62202 21.6338 6.76031 21.603 6.89859 21.5569C7.03688 21.5108 7.14443 21.4801 7.23662 21.4494C7.32881 21.4187 7.39027 21.3726 7.421 21.2957C7.45173 21.2189 7.46709 21.1574 7.46709 21.0806V18.9603C7.46709 18.8988 7.46709 18.8527 7.45173 18.8066C7.45173 18.7605 7.421 18.7298 7.39027 18.6991C7.35954 18.6683 7.32881 18.653 7.29808 18.6376C7.26735 18.6222 7.22126 18.6069 7.17516 18.6069H5.37746C5.34674 18.6069 5.33137 18.6069 5.316 18.6376C5.30064 18.6683 5.28528 18.6837 5.26991 18.7144C5.26991 18.7452 5.23918 18.7913 5.23918 18.8373V19.0371C5.23918 19.1907 5.23918 19.2983 5.28528 19.3598C5.31601 19.4212 5.34674 19.4519 5.40819 19.4519H6.42228V20.6965C6.31472 20.758 6.20717 20.7887 6.08425 20.8194C5.96133 20.8502 5.83841 20.8655 5.73086 20.8655C5.48502 20.8655 5.25455 20.8194 5.0548 20.7426C4.85506 20.6658 4.67068 20.5429 4.53239 20.3892C4.39411 20.2356 4.27119 20.0358 4.19437 19.8053C4.11754 19.5749 4.07145 19.2983 4.07145 18.991C4.07145 18.6837 4.11754 18.4532 4.19437 18.2228C4.27119 17.9923 4.39411 17.7925 4.53239 17.6389C4.68604 17.4699 4.85506 17.347 5.07017 17.2548C5.28528 17.1626 5.51575 17.1165 5.77695 17.1165C6.03816 17.1165 6.2379 17.1472 6.42228 17.1933C6.60666 17.2394 6.76031 17.3009 6.89859 17.347C7.03688 17.4084 7.14443 17.4545 7.22125 17.516C7.29808 17.5621 7.35954 17.5928 7.39027 17.5928C7.421 17.5928 7.43636 17.5928 7.45173 17.5774C7.46709 17.5621 7.48246 17.5467 7.49782 17.5006C7.49782 17.4699 7.52855 17.4238 7.52855 17.3623V17.1472C7.52855 17.0089 7.52855 16.9014 7.49782 16.8399M5.19309 8.88088L3.36466 11.1242H7.03688L5.19309 8.88088Z" fill="#222221"/>
    <path d="M4.9782 10.9706H5.40841C5.56206 10.9706 5.70035 11.0935 5.70035 11.2625V14.4891C5.70035 14.6428 5.57743 14.7811 5.40841 14.7811H4.96283C4.80918 14.7811 4.6709 14.6582 4.6709 14.4891V11.2625C4.6709 11.1089 4.79382 10.9706 4.96283 10.9706H4.9782Z" fill="#222221"/>
  </g>
  <defs>
    <clipPath id="clip0_173_1409">
      <rect width="43.5595" height="24" fill="white"/>
    </clipPath>
  </defs>
</svg>